<svg xmlns="http://www.w3.org/2000/svg" viewBox="0 0 300 300" fill="none">
  <defs>
    <linearGradient id="ov-body" x1="0" y1="0" x2="1" y2="1">
      <stop offset="0" stop-color="#ffffff"/><stop offset="1" stop-color="#eef1f5"/>
    </linearGradient>
  </defs>
  <!-- telo -->
  <rect x="20" y="20" width="260" height="248" rx="12" fill="url(#ov-body)" stroke="#d4dae2" stroke-width="2"/>
  <!-- horný panel -->
  <rect x="110" y="44" width="96" height="92" rx="10" fill="#3b5b9a"/>
  <text x="124" y="70" font-family="Arial" font-size="15" font-weight="800" fill="#e11d48">Thermo</text>
  <text x="126" y="82" font-family="Arial" font-size="7" letter-spacing="2" fill="#fff">SCIENTIFIC</text>
  <rect x="122" y="88" width="72" height="34" rx="3" fill="#0b1220"/>
  <!-- tlačidlá -->
  <g fill="#5b7fc0">
    <rect x="120" y="126" width="22" height="9" rx="3"/>
    <rect x="147" y="126" width="22" height="9" rx="3"/>
    <rect x="174" y="126" width="22" height="9" rx="3"/>
  </g>
  <!-- ľavá rukoväť -->
  <rect x="44" y="120" width="16" height="70" rx="7" fill="#4f74b8"/>
  <!-- digitálny teplomer vpravo hore -->
  <rect x="224" y="46" width="44" height="56" rx="5" fill="#f8fafc" stroke="#cbd5e1" stroke-width="1.5"/>
  <rect x="230" y="54" width="32" height="26" rx="3" fill="#dfe9ee"/>
  <text x="235" y="66" font-family="Arial" font-size="9" font-weight="700" fill="#0f172a">37.0</text>
  <text x="235" y="76" font-family="Arial" font-size="9" font-weight="700" fill="#0f172a">37.0°</text>
  <g fill="#3b82f6"><circle cx="234" cy="90" r="3"/><circle cx="246" cy="90" r="3"/><circle cx="258" cy="90" r="3"/></g>
  <!-- ventilačná mriežka -->
  <g stroke="#1f2937" stroke-width="2"><line x1="244" y1="30" x2="262" y2="30"/><line x1="244" y1="35" x2="262" y2="35"/></g>
  <!-- nožičky -->
  <rect x="34" y="268" width="16" height="14" rx="3" fill="#6b7280"/>
  <rect x="250" y="268" width="16" height="14" rx="3" fill="#6b7280"/>
  <text x="200" y="246" font-family="Arial" font-size="13" font-weight="800" fill="#2563eb" font-style="italic">HERATHERM</text>
</svg>
